<svg viewBox="0 0 440.245 436.811" xmlns="http://www.w3.org/2000/svg" xmlns:xlink="http://www.w3.org/1999/xlink" width="440.245300" height="436.811493" fill="none" customFrame="#000000">
	<g id="组合 1">
		<path id="矢量 1" d="M219.623 293.938L266.623 341.948L266.623 425.948L219.623 378.948L219.623 293.938L219.623 287.551L219.623 223.499L219.623 159.448L219.623 57.4475L173.623 10.9475L173.623 115.948L219.623 159.448M219.623 159.448L266.623 114.448L266.623 68.9475M219.623 287.551L173.623 333.948L173.623 383.948M219.623 223.499L147.047 223.499L55.1226 223.499L10.6226 269.448L103.123 269.448L147.047 223.499M147.047 223.499L103.123 179.448L83.1226 179.448M219.623 223.499L119.623 322.948M219.623 223.499L317.623 126.948M219.623 223.499L288.503 223.499L385.123 223.499L429.623 269.448L334.623 269.448L288.503 223.499" stroke="rgb(0,0,0)" stroke-width="9.000000" />
		<path id="矢量 2" d="M312.623 223.448L341.123 174.948L372.623 223.448M121.123 125.448L219.623 223.448L319.123 323.948" stroke="rgb(0,0,0)" stroke-width="9.000000" />
		<ellipse id="椭圆 1" rx="21.000000" ry="21.500000" cx="328.62262" cy="115.94754" fill="rgb(196,196,196)" fill-opacity="0" />
		<ellipse id="椭圆 1" rx="16.500000" ry="17.000000" cx="328.62262" cy="115.94754" stroke="rgb(0,0,0)" stroke-width="9.000000" />
		<ellipse id="椭圆 2" rx="21.000000" ry="21.500000" cx="107.622635" cy="115.94754" fill="rgb(196,196,196)" fill-opacity="0" />
		<ellipse id="椭圆 2" rx="16.500000" ry="17.000000" cx="107.622635" cy="115.94754" stroke="rgb(0,0,0)" stroke-width="9.000000" />
		<ellipse id="椭圆 3" rx="21.000000" ry="21.500000" cx="107.622635" cy="333.94754" fill="rgb(196,196,196)" fill-opacity="0" />
		<ellipse id="椭圆 3" rx="16.500000" ry="17.000000" cx="107.622635" cy="333.94754" stroke="rgb(0,0,0)" stroke-width="9.000000" />
		<ellipse id="椭圆 4" rx="21.000000" ry="21.500000" cx="328.62262" cy="333.94754" fill="rgb(196,196,196)" fill-opacity="0" />
		<ellipse id="椭圆 4" rx="16.500000" ry="17.000000" cx="328.62262" cy="333.94754" stroke="rgb(0,0,0)" stroke-width="9.000000" />
		<ellipse id="椭圆 5" rx="21.000000" ry="21.500000" cx="173.622635" cy="399.94754" fill="rgb(196,196,196)" fill-opacity="0" />
		<ellipse id="椭圆 5" rx="16.500000" ry="17.000000" cx="173.622635" cy="399.94754" stroke="rgb(0,0,0)" stroke-width="9.000000" />
		<rect id="矩形 2" width="9.000000" height="9.000000" x="262.122620" y="45.447540" fill="rgb(0,0,0)" />
		<rect id="矩形 3" width="9.000000" height="9.000000" x="262.122620" y="21.447540" fill="rgb(0,0,0)" />
		<rect id="矩形 4" width="9.000000" height="9.000000" x="58.622635" y="174.947540" fill="rgb(0,0,0)" />
		<rect id="矩形 5" width="9.000000" height="9.000000" x="34.622635" y="174.947540" fill="rgb(0,0,0)" />
	</g>
</svg>
